<?xml version="1.0" encoding="UTF-8" standalone="no"?>
<!-- Created with Inkscape (http://www.inkscape.org/) -->

<svg
   width="22.808594mm"
   height="20.494139mm"
   viewBox="0 0 22.808594 20.494139"
   version="1.1"
   id="svg5"
   xmlns="http://www.w3.org/2000/svg"
   xmlns:svg="http://www.w3.org/2000/svg">
  <defs
     id="defs2">
    <linearGradient
       id="linearGradient35327">
      <stop
         style="stop-color:#ff6f00;stop-opacity:1;"
         offset="0"
         id="stop35325" />
    </linearGradient>
    <linearGradient
       id="linearGradient12524">
      <stop
         style="stop-color:#fdd835;stop-opacity:1;"
         offset="0"
         id="stop12522" />
    </linearGradient>
    <linearGradient
       id="linearGradient1403">
      <stop
         style="stop-color:#000000;stop-opacity:1;"
         offset="0"
         id="stop1401" />
    </linearGradient>
  </defs>
  <g
     id="layer1"
     transform="translate(-152.01757,-22.099611)">
    <path
       id="path371-80"
       style="fill:#ff6f00;fill-opacity:1;stroke:none;stroke-width:0.298;stroke-dasharray:none;stroke-opacity:1"
       d="m 174.82617,22.099609 c -0.0212,0.03809 -0.0314,0.06681 -0.0703,0.121094 -1.13845,1.58764 -8.20394,7.400145 -9.12305,9.169922 -0.1085,0.208927 -0.16495,0.431364 -0.0391,0.582031 0.0935,0.111946 0.25256,0.143505 0.41016,0.138672 1.29593,-0.03974 5.71663,-2.551067 6.73828,-2.748047 0.008,-0.0016 0.0141,-0.0027 0.0215,-0.0039 -0.01,0.02777 -0.008,0.04261 -0.0664,0.130859 -0.74347,1.128284 -4.79624,4.504294 -5.64063,5.658204 -0.0953,0.130228 -0.17188,0.268803 -0.17773,0.36914 -0.22691,3.890689 -3.55789,7.076172 -7.58203,7.076172 -4.01918,0 -7.2793,-3.260127 -7.2793,-7.279297 0,-3.606835 2.62365,-6.600099 6.06445,-7.177734 0.40103,-0.0673 5.98726,-3.756657 7.625,-4.650391 -0.7749,1.457272 -2.69703,3.522354 -3.04687,4.666016 -0.10412,0.340366 -0.0732,0.66016 0.22265,0.828125 0.11815,0.06707 0.30442,-0.0069 0.50781,-0.09961 1.80197,-0.821302 9.36352,-5.847099 11.25977,-6.710937 0.0768,-0.03499 0.12338,-0.0515 0.17578,-0.07031 z" />
  </g>
</svg>
